<svg width="60" height="61" viewBox="0 0 60 61" fill="none" xmlns="http://www.w3.org/2000/svg">
<path d="M16.7604 41.4446H18.6691H51.2112C51.9975 41.4446 52.6903 40.928 52.9148 40.1744L59.9261 16.6328C60.0863 16.0949 59.9829 15.5129 59.6475 15.0629C59.312 14.6129 58.7837 14.3478 58.2225 14.3478H12.9831L10.5911 6.31578C10.3667 5.56226 9.67373 5.0457 8.8874 5.0457H1.77762C0.795939 5.04558 0 5.8414 0 6.8232C0 7.80489 0.795939 8.60082 1.77762 8.60082H7.56212L9.94279 16.5943C9.95006 16.6207 9.95768 16.6468 9.96611 16.6726L16.2903 37.9073C12.6804 38.1501 9.81717 41.1625 9.81717 44.8328C9.81717 48.6613 12.9319 51.7761 16.7603 51.7761H18.525C19.2962 54.4202 21.7403 56.3584 24.6302 56.3584C27.5199 56.3584 29.9641 54.4203 30.7353 51.7761H40.1668C40.938 54.4202 43.3821 56.3584 46.2719 56.3584C49.1617 56.3584 51.6058 54.4203 52.3771 51.7761H54.6673C55.6489 51.7761 56.4449 50.9801 56.4449 49.9985C56.4449 49.0168 55.6489 48.2208 54.6673 48.2208H52.3771C51.6058 45.5766 49.1618 43.6386 46.2719 43.6386C43.3821 43.6386 40.9379 45.5766 40.1668 48.2208H30.7353C29.9641 45.5766 27.52 43.6386 24.6302 43.6386C21.7403 43.6386 19.2961 45.5766 18.525 48.2208H16.7603C14.8921 48.2208 13.3723 46.7009 13.3723 44.8327C13.3723 42.9645 14.8922 41.4446 16.7604 41.4446ZM42.8375 17.9028H55.8384L53.3915 26.1185H42.8375V17.9028ZM42.8374 29.6738H52.3326L49.8859 37.8894H42.8374V29.6738ZM29.6841 17.9028H39.2824V26.1185H29.6841V17.9028ZM29.684 29.6738H39.2823V37.8894H29.684V29.6738ZM26.1291 37.8894H19.9945L17.5477 29.6738H26.1291V37.8894ZM14.0421 17.9028H26.129V26.1185H16.4889L14.0421 17.9028ZM46.272 47.1937C47.8186 47.1937 49.0767 48.4518 49.0767 49.9983C49.0767 51.5449 47.8186 52.803 46.272 52.803C44.7255 52.803 43.4674 51.5449 43.4674 49.9983C43.4674 48.4518 44.7255 47.1937 46.272 47.1937ZM24.6303 47.1937C26.1768 47.1937 27.4349 48.4518 27.4349 49.9983C27.4349 51.5449 26.1768 52.803 24.6303 52.803C23.0838 52.803 21.8256 51.5449 21.8256 49.9983C21.8256 48.4518 23.0838 47.1937 24.6303 47.1937Z" fill="#4FD675"/>
</svg>
