<svg width="60" height="61" viewBox="0 0 60 61" fill="none" xmlns="http://www.w3.org/2000/svg">
<g clip-path="url(#clip0)">
<path d="M59.4848 1.21727C58.7984 0.530787 57.6853 0.530787 56.9988 1.21727L51.8789 6.33718C51.5641 6.18718 51.232 6.06636 50.8853 5.97976L34.9746 2.04895C33.188 1.60235 31.2689 2.13379 29.9666 3.4361L1.54204 31.8139C-0.514013 33.8701 -0.514013 37.2158 1.54204 39.2721L21.4302 59.1602C23.4864 61.2164 26.8321 61.2165 28.8884 59.1602L57.2662 30.7355C58.5685 29.4332 59.1001 27.5141 58.6533 25.7274L54.7226 9.81683C54.6358 9.47019 54.5151 9.13796 54.3651 8.8232L59.4851 3.70328C60.1713 3.0168 60.1713 1.90375 59.4848 1.21727ZM55.2423 26.5802C55.3912 27.1758 55.214 27.8154 54.78 28.2496L26.4021 56.6742C25.7167 57.3596 24.6014 57.3596 23.916 56.6742L4.02793 36.786C3.3425 36.1005 3.3425 34.9853 4.02793 34.2998L32.4526 5.92211C32.7851 5.58965 33.2381 5.40789 33.6996 5.40789C33.8407 5.40789 33.9826 5.42488 34.122 5.45969L49.0669 9.14909L44.8335 13.3825C42.8735 12.449 40.4525 12.7914 38.8323 14.4116C36.776 16.4679 36.776 19.8135 38.8323 21.8698C39.8603 22.8979 41.2109 23.412 42.5613 23.412C43.9117 23.412 45.2623 22.898 46.2902 21.8698C47.9108 20.2493 48.2531 17.8285 47.3194 15.8685L51.5528 11.6351L55.2423 26.5802ZM43.8043 19.3839C43.119 20.0692 42.0038 20.0693 41.3183 19.3839C40.633 18.6986 40.633 17.5832 41.3183 16.8979C41.6611 16.5551 42.1111 16.3839 42.5613 16.3839C43.0113 16.3839 43.4616 16.5552 43.8041 16.8978L43.8042 16.8979L43.8043 16.898C44.4898 17.5833 44.4897 18.6986 43.8043 19.3839Z" fill="#4FD675"/>
<path d="M28.8908 21.8694C26.8346 19.8133 23.4889 19.8133 21.4327 21.8694C19.3766 23.9256 19.3766 27.2713 21.4327 29.3276C23.4888 31.3838 26.8346 31.3838 28.8908 29.3276C30.9471 27.2713 30.9471 23.9257 28.8908 21.8694ZM26.4049 26.8415C25.7195 27.5269 24.6042 27.5269 23.9189 26.8415C23.2336 26.156 23.2334 25.0408 23.9188 24.3555C24.6042 23.6701 25.7194 23.67 26.4049 24.3555C27.0902 25.0408 27.0902 26.156 26.4049 26.8415Z" fill="#4FD675"/>
<path d="M31.3752 39.2715C29.3143 37.2105 25.9785 37.2103 23.9172 39.2715C21.8609 41.3278 21.8609 44.6734 23.9172 46.7297C25.9783 48.7906 29.314 48.791 31.3752 46.7297C33.4315 44.6734 33.4315 41.3278 31.3752 39.2715ZM28.8892 44.2437C28.2024 44.9306 27.0902 44.9307 26.4032 44.2437C25.7179 43.5583 25.7179 42.443 26.4032 41.7576C27.0902 41.0707 28.2023 41.0706 28.8892 41.7576C29.5745 42.443 29.5745 43.5581 28.8892 44.2437Z" fill="#4FD675"/>
<path d="M39.3364 32.8624C39.2292 31.8975 38.3599 31.2021 37.3951 31.3093L15.021 33.7954C14.0561 33.9026 13.3607 34.7716 13.4679 35.7367C13.5679 36.6356 14.3289 37.3006 15.213 37.3006C15.2778 37.3006 15.3434 37.297 15.4093 37.2898L37.7835 34.8037C38.7484 34.6964 39.4438 33.8273 39.3364 32.8624Z" fill="#4FD675"/>
</g>
<defs>
<clipPath id="clip0">
<rect width="60" height="60" fill="white" transform="translate(0 0.701904)"/>
</clipPath>
</defs>
</svg>
