<svg width="60" height="61" viewBox="0 0 60 61" fill="none" xmlns="http://www.w3.org/2000/svg">
<g clip-path="url(#clip0)">
<path d="M42.9648 43.4327H46.4805V52.4326H42.9648V43.4327Z" fill="#4FD675"/>
<path d="M44.7202 41.0978C45.6397 41.0978 46.5206 40.2894 46.478 39.34C46.4354 38.3876 45.7057 37.5822 44.7202 37.5822C43.8008 37.5822 42.9199 38.3907 42.9624 39.34C43.0051 40.2924 43.7348 41.0978 44.7202 41.0978Z" fill="#4FD675"/>
<path d="M47.8239 30.6035V0.701904H7.72559C3.4657 0.701904 0 4.06565 0 8.32554V53.2037H0.0371484C0.427617 57.4031 3.96973 60.7019 8.26934 60.7019H44.7434C53.1559 60.7019 60 53.9598 60 45.5473C60 38.1898 54.7648 32.0322 47.8239 30.6035ZM44.3027 30.2976C36.5568 30.5185 30.2392 36.5411 29.5504 44.1631H14.1382V4.12108H44.3027V30.2976ZM7.72559 4.12108H10.617V44.1631H8.26934C6.5032 44.1631 4.86598 44.7215 3.52113 45.6684V8.32554C3.52113 6.0071 5.40727 4.12108 7.72559 4.12108ZM8.26934 57.1808C5.65113 57.1808 3.52113 55.0507 3.52113 52.4326C3.52113 49.8144 5.65113 47.6844 8.26934 47.6844H29.6372C29.7837 48.7245 30.035 49.7314 30.381 50.6937H8.92289V54.2149H32.1955C32.9594 55.3175 33.8647 56.3149 34.8851 57.1809H8.26934V57.1808ZM44.7435 57.2827C38.2725 57.2827 33.0081 52.0182 33.0081 45.5473C33.0081 39.0765 38.2725 33.8119 44.7435 33.8119C51.2145 33.8119 56.4789 39.0765 56.4789 45.5473C56.4789 52.0182 51.2143 57.2827 44.7435 57.2827Z" fill="#4FD675"/>
<path d="M23.5312 10.9675H35.3158V14.4887H23.5312V10.9675Z" fill="#4FD675"/>
<path d="M19.5508 18.6118H39.2965V22.1329H19.5508V18.6118Z" fill="#4FD675"/>
</g>
<defs>
<clipPath id="clip0">
<rect width="60" height="60" fill="white" transform="translate(0 0.701904)"/>
</clipPath>
</defs>
</svg>
