<svg width="737" height="408" viewBox="0 0 737 408" fill="none" xmlns="http://www.w3.org/2000/svg">
<path d="M291.948 205.169H239.181L184.785 100.318H183.868C185.158 116.809 185.803 129.398 185.803 138.085V205.169H150.15V56.3413H202.713L256.906 159.768H257.517C256.566 144.769 256.091 132.723 256.091 123.63V56.3413H291.948V205.169Z" fill="#F9F9F9"/>
<path d="M463.49 130.552C463.49 155.594 457.344 174.63 445.052 187.66C432.76 200.69 414.764 207.205 391.063 207.205C367.702 207.205 349.774 200.656 337.278 187.558C324.85 174.46 318.637 155.39 318.637 130.348C318.637 105.577 324.816 86.677 337.176 73.6469C349.604 60.549 367.634 54 391.267 54C414.968 54 432.93 60.4811 445.154 73.4433C457.378 86.4056 463.49 105.442 463.49 130.552ZM361.013 130.552C361.013 159.327 371.03 173.714 391.063 173.714C401.25 173.714 408.788 170.219 413.678 163.229C418.635 156.239 421.114 145.346 421.114 130.552C421.114 115.689 418.601 104.729 413.576 97.6712C408.618 90.5453 401.182 86.9824 391.267 86.9824C371.098 86.9824 361.013 101.506 361.013 130.552Z" fill="#F9F9F9"/>
<path d="M556.086 205.169H515.849V89.222H479.483V56.3413H592.35V89.222H556.086V205.169Z" fill="#F9F9F9"/>
<path d="M39.6258 404.964H0V256.136H88.0122V288.406H39.6258V316.807H84.2431V349.077H39.6258V404.964Z" fill="#F9F9F9"/>
<path d="M251.813 330.346C251.813 355.389 245.667 374.425 233.375 387.455C221.083 400.485 203.087 407 179.386 407C156.025 407 138.096 400.451 125.601 387.353C113.173 374.255 106.959 355.185 106.959 330.143C106.959 305.372 113.139 286.472 125.499 273.442C137.926 260.344 155.957 253.795 179.59 253.795C203.29 253.795 221.253 260.276 233.477 273.238C245.701 286.2 251.813 305.236 251.813 330.346ZM149.335 330.346C149.335 359.121 159.352 373.509 179.386 373.509C189.572 373.509 197.111 370.014 202 363.023C206.958 356.033 209.436 345.141 209.436 330.346C209.436 315.484 206.924 304.524 201.898 297.466C196.941 290.34 189.505 286.777 179.59 286.777C159.42 286.777 149.335 301.3 149.335 330.346Z" fill="#F9F9F9"/>
<path d="M405.325 256.136V345.718C405.325 365.195 399.79 380.295 388.72 391.018C377.719 401.673 361.828 407 341.047 407C320.742 407 305.122 401.808 294.189 391.425C283.323 381.042 277.89 366.111 277.89 346.634V256.136H318.331V343.478C318.331 353.997 320.3 361.632 324.239 366.383C328.178 371.133 333.984 373.509 341.658 373.509C349.876 373.509 355.818 371.167 359.485 366.485C363.22 361.734 365.087 353.997 365.087 343.275V256.136H405.325Z" fill="#F9F9F9"/>
<path d="M578.395 404.964H525.628L471.232 300.113H470.315C471.605 316.604 472.25 329.193 472.25 337.879V404.964H436.597V256.136H489.16L543.353 359.562H543.964C543.013 344.564 542.538 332.518 542.538 323.424V256.136H578.395V404.964Z" fill="#F9F9F9"/>
<path d="M737 327.394C737 352.233 730.141 371.371 716.423 384.808C702.773 398.245 683.554 404.964 658.767 404.964H610.584V256.136H662.129C686.033 256.136 704.471 262.244 717.442 274.46C730.481 286.675 737 304.32 737 327.394ZM695.235 328.819C695.235 315.179 692.519 305.067 687.086 298.484C681.721 291.901 673.538 288.609 662.536 288.609H650.821V371.982H659.786C672.01 371.982 680.974 368.453 686.678 361.395C692.383 354.269 695.235 343.41 695.235 328.819Z" fill="#F9F9F9"/>
<path d="M344.109 50.6239C344.471 51.8204 361.572 75.0519 361.223 74.4536L373.312 60.2416L353.095 44.562L344.109 50.6239Z" fill="#EF9E7B"/>
<path d="M356.051 43.6814L353.703 64.2601L343.656 50.1158L356.051 43.6814Z" fill="#D67F61"/>
<path d="M345.801 57.4419C355.87 57.4419 364.032 49.2797 364.032 39.2112C364.032 29.1426 355.87 20.9805 345.801 20.9805C335.732 20.9805 327.57 29.1426 327.57 39.2112C327.57 49.2797 335.732 57.4419 345.801 57.4419Z" fill="#EF9E7B"/>
<path d="M329.602 27.4601C329.602 27.4601 332.062 35.9038 346.794 39.9676L350.113 41.5705C350.113 41.5705 357.619 54.8118 370.432 49.3821C370.432 49.3821 375.06 33.5784 356.084 22.0304C342.29 13.6318 329.602 27.4601 329.602 27.4601Z" fill="#060E38"/>
<path d="M329.244 46.9438L328.544 51.3237C328.465 51.8543 328.939 52.2945 329.458 52.1704L332.416 51.4705L329.244 46.9438Z" fill="#EF9E7B"/>
<path d="M356.703 39.1999C356.557 42.4058 353.848 44.9005 350.63 44.7538C347.424 44.607 344.93 41.8978 345.076 38.6806C345.223 35.4747 347.932 32.98 351.15 33.1268C354.367 33.2735 356.85 35.9827 356.703 39.1999Z" fill="#EF9E7B"/>
<path d="M348.62 40.9382C348.62 40.9382 348.372 37.2808 352.244 36.468" stroke="#060E38" stroke-width="0.8391" stroke-miterlimit="10" stroke-linecap="round" stroke-linejoin="round"/>
<path d="M379.767 20.924C379.914 27.8325 374.439 33.5557 367.531 33.7138C360.622 33.8605 354.899 28.3857 354.741 21.4772C354.594 14.5687 360.069 8.84549 366.978 8.68745C373.886 8.5407 379.609 14.0156 379.767 20.924Z" fill="#060E38"/>
<path d="M332.503 43.1171C332.706 43.6815 332.412 44.2911 331.848 44.4943C331.283 44.6975 330.674 44.404 330.471 43.8396C330.267 43.2751 330.561 42.6656 331.125 42.4624C331.69 42.2592 332.311 42.564 332.503 43.1171Z" fill="#060E38"/>
<path d="M329.207 39.5837C329.207 39.5837 330.776 38.1839 333.056 39.1998" stroke="#060E38" stroke-width="0.8391" stroke-miterlimit="10" stroke-linecap="round" stroke-linejoin="round"/>
<path d="M335.395 52.441C335.395 52.441 335.395 51.0638 337.268 50.9058" stroke="#060E38" stroke-width="0.8391" stroke-miterlimit="10" stroke-linecap="round" stroke-linejoin="round"/>
<path d="M447.652 340.949L462.44 351.47L471.245 335.621L455.927 324.649L447.652 340.949Z" fill="#EF9E7B"/>
<path d="M457.754 352.847L471.763 333.149L492.669 347.395L466.017 384.861C464.764 386.611 462.01 385.572 462.224 383.439L465.52 358.559L457.754 352.847Z" fill="#060E38"/>
<path d="M462 382.795L489.036 344.81" stroke="#FFDABC" stroke-width="1.1334" stroke-miterlimit="10"/>
<path d="M463.523 369.972L467.271 368.662" stroke="#FFDABC" stroke-width="1.1334" stroke-miterlimit="10"/>
<path d="M464.156 365.095L467.915 363.797" stroke="#FFDABC" stroke-width="1.1334" stroke-miterlimit="10"/>
<path d="M401.741 156.26L362.909 162.988C362.909 162.988 329.067 267.62 444.106 349.009C444.106 349.009 456.591 339.572 466.706 321.24C466.706 321.228 378.577 268.207 401.741 156.26Z" fill="#45CC6B"/>
<path d="M313.699 365.614V383.766H332.37L332.427 364.914L313.699 365.614Z" fill="#EF9E7B"/>
<path d="M310.303 382.073H334.472L334.98 407.359H289.002C286.846 407.359 286.09 404.503 287.964 403.442L310.145 391.702L310.303 382.073Z" fill="#240448"/>
<path d="M288.355 402.911H334.976" stroke="#FFDABC" stroke-width="1.1334" stroke-miterlimit="10"/>
<path d="M299.684 396.702L302.935 399.005" stroke="#FFDABC" stroke-width="1.1334" stroke-miterlimit="10"/>
<path d="M304.023 394.4L307.263 396.702" stroke="#FFDABC" stroke-width="1.1334" stroke-miterlimit="10"/>
<path d="M361.04 131.369L362.643 139.384C362.643 139.384 308.368 217.341 305.625 370.412C305.625 370.412 324.522 374.577 340.788 370.412C340.788 370.412 338.621 241.126 392.478 182.133C392.478 182.133 417.752 161.001 403.348 126.639L361.04 131.369Z" fill="#4FD675"/>
<path d="M305.906 359.439C305.906 359.439 322.771 361.618 340.9 359.439" stroke="#060E38" stroke-width="0.8391" stroke-miterlimit="10" stroke-linecap="round" stroke-linejoin="round"/>
<path d="M363.027 139.328L406.115 135.433" stroke="#060E38" stroke-width="0.8391" stroke-miterlimit="10" stroke-linecap="round" stroke-linejoin="round"/>
<path d="M336.59 138.526C317.874 139.001 296.551 125.217 279.087 108.556C273.917 103.634 276.762 101.06 281.695 95.8903C286.617 90.7202 294.801 90.5283 299.971 95.4613C313.449 108.319 326.747 114.019 339.514 112.416C363.254 109.436 380.062 82.9764 380.231 82.7054C384.002 76.6662 391.971 74.8036 398.022 78.5626C404.072 82.3216 405.946 90.2461 402.21 96.3079C401.273 97.8206 378.944 133.402 342.923 138.041C340.801 138.312 338.69 138.47 336.59 138.526Z" fill="#EF9E7B"/>
<path d="M356.2 101.06L355.5 143.245L387.559 132.499L368.549 94.8406L356.2 101.06Z" fill="#FCCC6C"/>
<path d="M300.409 100.394L299.912 96.2625L301.719 97.0866L296.029 85.6966C295.555 84.7597 294.912 83.8905 294.054 83.2922C292.078 81.8924 290.487 82.5133 289.076 82.3553C286.705 82.0956 287.439 82.8068 287.405 85.1886C284.933 85.2338 279.819 86.34 277.008 75.4016C276.41 73.0649 273.983 71.6313 271.635 72.207C268.091 73.0875 274.231 71.4507 274.062 73.0536C274.051 73.1214 274.062 73.1891 274.062 73.2568C273.216 72.4666 272.008 72.1167 270.811 72.4102C269.332 72.7827 268.305 74.0244 268.158 75.4581C268.136 75.65 268.136 75.8419 268.147 76.0338C267.594 75.887 266.996 75.8532 266.409 76.0112C264.93 76.3837 263.903 77.6254 263.756 79.0591C263.711 79.4541 263.745 79.8718 263.846 80.2895C263.88 80.4362 263.925 80.5717 263.959 80.7184C263.891 80.7297 263.835 80.7297 263.767 80.741C262.288 81.1135 262.221 81.7683 262.063 83.2019C262.017 83.597 262.051 84.0146 262.153 84.4323C262.92 87.5366 263.688 88.7783 264.851 91.0924H264.84C264.84 91.0924 264.862 91.1376 264.896 91.1941C265.449 92.289 266.036 93.2824 266.668 94.1967C270.247 99.8974 279.221 111.073 289.426 113.59C303.006 116.943 300.409 100.394 300.409 100.394Z" fill="#EF9E7B"/>
<path d="M256.59 67.1838L256.658 69.227C256.68 69.8705 256.906 70.48 257.312 70.9767L282.847 101.613C283.569 102.483 284.958 103.611 286.098 103.578L297.296 103.295C298.526 103.261 299.858 102.099 300.423 100.597L266.806 68.2901L256.59 67.1838Z" fill="#03081D"/>
<path d="M256.873 67.9514L284.778 100.699C285.342 101.365 286.178 101.738 287.047 101.726L299.227 101.579C300.164 101.568 300.672 100.462 300.051 99.7508L272.203 67.3531C271.446 66.4726 270.34 65.976 269.177 65.9872L257.708 66.1227C256.76 66.1453 256.264 67.2402 256.873 67.9514Z" fill="#060E38"/>
<path d="M261.805 69.0802L287.102 98.7686C287.509 99.2428 288.096 99.5137 288.717 99.5024L295.648 99.4234C296.483 99.4121 296.923 98.43 296.382 97.7978L271.649 69.0238C270.971 68.2449 269.989 67.7934 268.962 67.8047L262.347 67.8837C261.738 67.8949 261.41 68.6061 261.805 69.0802Z" fill="#F7F4ED"/>
<path d="M291.733 82.3894L285.57 81.4524C282.985 81.0573 280.942 83.6198 281.901 86.0581C282.217 86.837 282.804 87.4804 283.561 87.8529L294.635 93.2713L292.998 86.1371L291.733 82.3894Z" fill="#EF9E7B"/>
<path d="M356.692 75.4921C356.692 75.4921 352.572 70.9654 360.068 62.6685C368.715 53.0847 373.501 56.1325 377.576 57.9951L356.692 75.4921Z" fill="#FCCC6C"/>
<path d="M403.337 126.64C403.337 126.64 391.744 110.102 393.245 97.2222C394.747 84.3421 397.862 61.8218 380.038 56.0535C380.038 56.0535 372.17 56.076 365.307 62.8716C359.403 67.9853 345.292 82.3892 352.811 97.685C353.736 99.5814 354.684 101.06 355.621 102.189C356.299 110.384 357.981 120.013 361.028 131.369L403.337 126.64Z" fill="#FCCC6C"/>
<path d="M383.041 95.3372L393.505 127.735L409.174 126.008L379.305 78.9578L383.041 95.3372Z" fill="#E8B858"/>
<path d="M419.232 187.202C419.3 187.766 419.413 188.308 419.548 188.85L413.069 200.669C412.211 202.238 412.459 204.179 413.678 205.478C415.338 207.25 418.171 207.216 419.785 205.398L421.106 203.908C423.059 205.534 425.429 209.485 420.124 220.028C419.232 221.8 419.943 223.968 421.716 224.86C423.104 225.56 424.73 225.277 425.791 224.273C425.836 224.227 425.881 224.171 425.926 224.115C426.05 225.277 426.75 226.361 427.879 226.937C429.268 227.637 430.893 227.354 431.954 226.35C432.09 226.214 432.225 226.067 432.349 225.909C432.677 226.395 433.117 226.813 433.681 227.095C435.07 227.795 436.695 227.512 437.756 226.508C438.061 226.226 438.31 225.887 438.501 225.503C438.569 225.368 438.626 225.232 438.693 225.097C438.75 225.131 438.795 225.176 438.851 225.198C440.24 225.898 441.865 225.616 442.926 224.611C443.231 224.329 443.48 223.99 443.671 223.607C445.139 220.694 446.189 217.951 446.832 215.389H446.844C446.844 215.389 446.855 215.344 446.866 215.265C447.171 214.057 447.374 212.894 447.487 211.765C448.334 206.234 449.35 195.42 446.336 186.874C446.437 185.87 446.437 184.831 446.302 183.781C440.251 135.896 419.56 99.5023 404.919 78.9688L383.008 95.3482C395.73 113.263 413.949 145.333 419.232 187.202Z" fill="#EF9E7B"/>
<path d="M389.656 60.1172C384.362 54.7439 375.726 54.6875 370.33 59.9591C364.946 65.2534 364.878 73.9003 370.172 79.2848C370.319 79.4316 375.771 85.0645 383.041 95.3369L404.952 78.9575C396.688 67.3643 390.356 60.8283 389.656 60.1172Z" fill="#FCCC6C"/>
<path d="M383.041 95.337L370.184 79.2849" stroke="#060E38" stroke-width="0.8391" stroke-miterlimit="10" stroke-linecap="round" stroke-linejoin="round"/>
<path d="M208.223 13.5867L214.747 16.3636" stroke="#060E38" stroke-width="1.1334" stroke-miterlimit="10"/>
<path d="M224.648 3.6189V9.3421" stroke="#060E38" stroke-width="1.1334" stroke-miterlimit="10"/>
<path d="M211.734 1L217.774 10.2452" stroke="#060E38" stroke-width="1.1334" stroke-miterlimit="10"/>
<path d="M291.466 41.5141H223.612C222.167 41.5141 221.004 40.3514 221.004 38.9065V18.0568C221.004 16.6119 222.167 15.4492 223.612 15.4492H291.466C292.911 15.4492 294.074 16.6119 294.074 18.0568V38.9065C294.074 40.3401 292.911 41.5141 291.466 41.5141Z" fill="#060E38"/>
<path d="M250.582 39.1321L257.434 46.8872L264.501 39.1321H250.582Z" fill="#060E38"/>
<path d="M228.68 24.9314H283.643" stroke="white" stroke-width="1.1334" stroke-miterlimit="10"/>
<path d="M228.68 30.79H259.034" stroke="white" stroke-width="1.1334" stroke-miterlimit="10"/>
</svg>
